<svg width="190" height="50" viewBox="0 0 190 50" fill="none" xmlns="http://www.w3.org/2000/svg">
<path d="M36.2201 4.73291H19.0773C14.0297 4.73291 9.93787 8.82477 9.93787 13.8723V31.0151C9.93787 36.0627 14.0297 40.1545 19.0773 40.1545H36.2201C41.2676 40.1545 45.3595 36.0627 45.3595 31.0151V13.8723C45.3595 8.82477 41.2676 4.73291 36.2201 4.73291Z" fill="#1A75FF"/>
<path d="M59.5925 26.6447L58.1405 23.3618L57.4776 26.6447L55.331 37.4722H51.8271L56.6253 14.2705H57.0041L63.3806 26.8026L65.2746 31.001L67.1686 26.8026L73.4188 14.2705H73.7661L78.7536 37.4722H75.2813L72.9453 26.6447L72.2509 23.3618L70.9882 26.6447L65.3693 37.4722H65.1799L59.5925 26.6447ZM85.8098 37.9141L79.8121 22.983H83.6633L86.7568 32.2005L87.4513 34.4417L88.1458 32.2005L91.3972 22.983H95.1221L86.2202 45.427H82.6847L85.8098 37.9141ZM105.261 14.2705H108.796V23.7406H116.972V14.2705H120.508V37.4722H116.972V26.7079H108.796V37.4722H105.261V14.2705ZM136.977 37.4722L132.305 28.6966C131.337 28.7387 130.474 28.7597 129.716 28.7597H128.833V37.4722H125.392V14.2705H130.663C133.336 14.2705 135.535 14.8282 137.261 15.9436C138.987 17.0379 139.849 18.8267 139.849 21.3099C139.849 22.8672 139.481 24.2141 138.745 25.3505C138.029 26.4658 136.956 27.3287 135.525 27.939L141.049 37.4722H136.977ZM131.074 25.8871C133.136 25.8871 134.546 25.4452 135.304 24.5613C136.082 23.6564 136.472 22.5831 136.472 21.3415C136.472 18.5846 134.63 17.2062 130.948 17.2062H128.833V25.8871H131.074ZM150.625 26.6447L149.173 23.3618L148.51 26.6447L146.363 37.4722H142.859L147.657 14.2705H148.036L154.413 26.8026L156.307 31.001L158.201 26.8026L164.451 14.2705H164.798L169.786 37.4722H166.314L163.978 26.6447L163.283 23.3618L162.02 26.6447L156.402 37.4722H156.212L150.625 26.6447ZM178.231 37.7878C176.968 37.7878 175.716 37.5669 174.475 37.1249C173.233 36.683 172.339 36.1884 171.791 35.6413L173.464 32.6424C173.906 33.0423 174.59 33.4632 175.516 33.9051C176.463 34.326 177.368 34.5364 178.231 34.5364C179.346 34.5364 180.251 34.2734 180.946 33.7473C181.661 33.2212 182.019 32.4951 182.019 31.5692C182.019 30.8536 181.83 30.2328 181.451 29.7067C181.072 29.1806 180.609 28.7492 180.062 28.4125C179.515 28.0547 178.736 27.6233 177.726 27.1182C176.526 26.529 175.706 26.087 175.264 25.7924C173.222 24.4245 172.202 22.5305 172.202 20.1104C172.202 18.1111 172.865 16.5854 174.19 15.5332C175.516 14.4599 177.189 13.9233 179.21 13.9233C181.377 13.9233 183.219 14.5441 184.734 15.7857L183.061 18.6583C182.661 18.2374 182.093 17.8797 181.356 17.585C180.641 17.2694 179.872 17.1115 179.052 17.1115C178 17.1115 177.168 17.3535 176.558 17.8376C175.969 18.3005 175.674 18.995 175.674 19.921C175.674 20.5734 175.863 21.1626 176.242 21.6887C176.621 22.1938 177.095 22.6357 177.663 23.0145C178.252 23.3933 179.041 23.8563 180.03 24.4035C180.977 24.9296 181.703 25.3505 182.208 25.6662C182.713 25.9608 183.187 26.3185 183.629 26.7394C184.239 27.2866 184.734 27.939 185.113 28.6966C185.491 29.4542 185.681 30.2854 185.681 31.1904C185.681 32.6003 185.355 33.7999 184.702 34.789C184.071 35.7781 183.187 36.5252 182.051 37.0302C180.935 37.5353 179.662 37.7878 178.231 37.7878Z" fill="#2F3B4B"/>
<circle cx="27" cy="23" r="11.5" stroke="white"/>
</svg>
