<svg width="189" height="50" viewBox="0 0 189 50" fill="none" xmlns="http://www.w3.org/2000/svg">
<g clip-path="url(#clip0_1_727)">
<path d="M58.698 38.1726L57.2459 34.8896L56.583 38.1726L54.4365 49H50.9326L55.7307 25.7983H56.1095L62.486 38.3304L64.3801 42.5288L66.2741 38.3304L72.5243 25.7983H72.8715L77.8591 49H74.3868L72.0508 38.1726L71.3563 34.8896L70.0937 38.1726L64.4748 49H64.2853L58.698 38.1726ZM84.9153 49.4419L78.9176 34.5108H82.7687L85.8623 43.7283L86.5568 45.9696L87.2512 43.7283L90.5026 34.5108H94.2275L85.3257 56.9549H81.7902L84.9153 49.4419ZM104.366 25.7983H107.902V35.2684H116.078V25.7983H119.613V49H116.078V38.2357H107.902V49H104.366V25.7983ZM136.082 49L131.41 40.2244C130.442 40.2665 129.579 40.2875 128.822 40.2875H127.938V49H124.497V25.7983H129.769C132.442 25.7983 134.641 26.356 136.366 27.4714C138.092 28.5657 138.955 30.3545 138.955 32.8378C138.955 34.3951 138.587 35.7419 137.85 36.8783C137.134 37.9937 136.061 38.8565 134.63 39.4668L140.154 49H136.082ZM130.179 37.415C132.242 37.415 133.652 36.973 134.409 36.0891C135.188 35.1842 135.577 34.111 135.577 32.8693C135.577 30.1125 133.736 28.7341 130.053 28.7341H127.938V37.415H130.179ZM149.73 38.1726L148.278 34.8896L147.615 38.1726L145.469 49H141.965L146.763 25.7983H147.142L153.518 38.3304L155.412 42.5288L157.306 38.3304L163.557 25.7983H163.904L168.891 49H165.419L163.083 38.1726L162.389 34.8896L161.126 38.1726L155.507 49H155.318L149.73 38.1726ZM177.336 49.3157C176.074 49.3157 174.822 49.0947 173.58 48.6528C172.338 48.2108 171.444 47.7163 170.897 47.1691L172.57 44.1703C173.012 44.5701 173.696 44.991 174.622 45.4329C175.569 45.8538 176.474 46.0643 177.336 46.0643C178.452 46.0643 179.357 45.8012 180.051 45.2751C180.767 44.749 181.124 44.023 181.124 43.097C181.124 42.3815 180.935 41.7607 180.556 41.2345C180.177 40.7084 179.715 40.277 179.167 39.9403C178.62 39.5825 177.842 39.1511 176.831 38.6461C175.632 38.0568 174.811 37.6149 174.369 37.3203C172.328 35.9524 171.307 34.0583 171.307 31.6382C171.307 29.639 171.97 28.1132 173.296 27.061C174.622 25.9877 176.295 25.4511 178.315 25.4511C180.483 25.4511 182.324 26.0719 183.839 27.3136L182.166 30.1861C181.766 29.7652 181.198 29.4075 180.462 29.1129C179.746 28.7972 178.978 28.6394 178.157 28.6394C177.105 28.6394 176.274 28.8814 175.663 29.3654C175.074 29.8284 174.78 30.5229 174.78 31.4488C174.78 32.1012 174.969 32.6904 175.348 33.2166C175.727 33.7216 176.2 34.1636 176.768 34.5424C177.358 34.9212 178.147 35.3842 179.136 35.9313C180.083 36.4574 180.809 36.8783 181.314 37.194C181.819 37.4886 182.292 37.8464 182.734 38.2673C183.345 38.8144 183.839 39.4668 184.218 40.2244C184.597 40.982 184.786 41.8133 184.786 42.7182C184.786 44.1282 184.46 45.3277 183.808 46.3168C183.176 47.3059 182.292 48.053 181.156 48.5581C180.041 49.0631 178.767 49.3157 177.336 49.3157Z" fill="white"/>
</g>
<defs>
<clipPath id="clip0_1_727">
<rect width="189" height="48.9866" fill="white" transform="translate(0 0.211304)"/>
</clipPath>
</defs>
</svg>
