<svg width="69" height="69" viewBox="0 0 69 69" fill="none" xmlns="http://www.w3.org/2000/svg">
<path d="M50.9284 0.517822H18.0361C8.35117 0.517822 0.5 8.36899 0.5 18.0539V50.9462C0.5 60.6311 8.35117 68.4823 18.0361 68.4823H50.9284C60.6133 68.4823 68.4645 60.6311 68.4645 50.9462V18.0539C68.4645 8.36899 60.6133 0.517822 50.9284 0.517822Z" fill="#4FC7B1"/>
<path d="M30.215 40.5026C34.5155 40.5026 38.0016 37.0164 38.0016 32.716C38.0016 28.4156 34.5155 24.9294 30.215 24.9294C25.9146 24.9294 22.4285 28.4156 22.4285 32.716C22.4285 37.0164 25.9146 40.5026 30.215 40.5026Z" stroke="white" stroke-width="2.5" stroke-miterlimit="10"/>
<path d="M24.3375 11.2C26.4521 10.5871 28.6428 10.2767 30.8444 10.2782C37.2354 10.2782 43.3646 12.817 47.8837 17.3361C52.4028 21.8552 54.9416 27.9844 54.9416 34.3754C54.9416 40.7664 52.4028 46.8956 47.8837 51.4147C43.3646 55.9338 37.2354 58.4726 30.8444 58.4726C24.6823 58.6292 18.7062 56.3541 14.2084 52.1392C13.8035 51.7556 13.5576 51.2338 13.5194 50.6774C13.4813 50.1209 13.6537 49.5705 14.0024 49.1352L17.2558 45.0792C17.4302 44.85 17.6484 44.6578 17.8978 44.5138C18.1473 44.3698 18.4228 44.2769 18.7085 44.2406C18.9942 44.2043 19.2843 44.2252 19.5618 44.3021C19.8393 44.3791 20.0987 44.5105 20.3249 44.6888C23.0695 46.8859 26.4657 48.1098 29.9809 48.1687C33.4961 48.2275 36.9313 47.118 39.748 45.0142" stroke="white" stroke-width="2.5" stroke-linecap="round" stroke-linejoin="round"/>
</svg>
